<svg width="538" height="126" viewBox="0 0 538 126" fill="none" xmlns="http://www.w3.org/2000/svg">
<path fill-rule="evenodd" clip-rule="evenodd" d="M86.503 4.70334C86.1947 4.56442 85.8993 4.3751 85.5761 4.29413C73.6418 1.30427 61.853 1.77746 50.3011 6.01555C45.8078 7.66393 41.5789 9.87122 37.647 12.6701C34.2437 15.0925 31.1275 17.8025 28.3858 20.8988C19.1452 31.3346 14.7473 43.4816 15.5616 57.4088C16.107 66.7359 19.2103 75.1709 25.1199 82.41C32.0056 90.8445 40.8665 96.0888 51.9303 97.1445C59.2176 97.8399 66.1725 96.6252 72.5554 92.9062C75.3015 91.3061 77.7817 89.3501 79.9833 87.0526C80.6582 86.3482 81.3712 85.6571 82.1658 85.0986C82.5079 84.8581 83.2229 84.777 83.5474 84.9765C83.867 85.173 84.1349 85.8817 84.0273 86.2519C83.6707 87.4786 83.3035 88.7578 82.6353 89.8297C80.6481 93.0172 78.0909 95.7009 74.9185 97.791C62.7641 105.799 49.9486 105.909 36.8554 100.631C29.9401 97.844 24.2065 93.3232 19.3701 87.6226C11.0769 77.848 7.33145 66.4599 7.08236 53.8882C6.93839 46.6174 8.5268 39.565 11.2073 32.7988C13.3979 27.2694 16.2874 22.1057 20.181 17.5543C21.8983 15.5469 23.7497 13.652 25.5384 11.7042C25.877 11.3356 26.2069 10.9592 26.5409 10.5862C26.4883 10.5232 26.4358 10.46 26.3832 10.3967C25.9237 10.7686 25.4228 11.1004 25.0113 11.5185C21.2609 15.3287 17.7649 19.3267 14.936 23.8939C9.9998 31.8631 6.99781 40.4457 6.20979 49.7668C5.54175 57.6667 6.33033 65.4229 8.95147 72.9314C11.2022 79.3794 14.4472 85.3261 19.0328 90.4415C29.9696 102.642 43.591 108.723 60.1719 107.572C68.7085 106.979 76.502 104.11 83.1637 98.7362C93.3715 90.5024 98.4847 79.8856 97.7508 66.7036C97.6896 65.6051 97.5748 64.499 97.6515 63.4078C97.6845 62.9389 98.0751 62.2049 98.4272 62.1245C98.8263 62.0335 99.5323 62.42 99.813 62.8072C101.072 64.542 101.464 66.6166 101.761 68.6667C102.948 76.8382 101.306 84.4782 97.2393 91.6516C93.3557 98.5014 88.0053 103.953 81.1956 107.924C68.8772 115.107 55.7098 116.49 41.9662 113.117C33.3748 111.008 25.799 106.897 19.1132 101.169C12.1334 95.1894 6.84203 87.9771 3.1897 79.5842C2.33751 77.626 1.53426 75.647 0.599609 73.6998C0.985238 74.9527 1.30174 76.2313 1.76716 77.4543C6.39089 89.6025 13.9431 99.5169 24.8399 106.804C34.4593 113.237 45.1042 116.639 56.7212 116.617C69.0613 116.594 80.2038 112.871 89.8407 105.128C99.4241 97.4278 105.204 87.4794 106.978 75.3816C108.332 66.1438 106.613 57.3394 101.884 49.2813C97.8747 42.4486 92.1853 37.2924 84.7102 34.2603C82.9805 33.5587 81.2011 32.9777 79.4457 32.3382C78.9696 32.1647 78.4274 32.0704 78.0431 31.7761C77.659 31.482 77.1473 30.9278 77.2136 30.5873C77.2963 30.1632 77.8577 29.6437 78.3117 29.5184C79.1202 29.2953 80.0067 29.2494 80.8545 29.2826C86.1139 29.4884 90.8114 31.3669 95.1637 34.174C104.598 40.2587 110.359 48.9091 112.944 59.6616C115.55 70.5042 114.328 81.0449 109.844 91.2097C106.131 99.6241 100.417 106.549 93.1525 112.177C88.4576 115.814 83.2507 118.599 77.6451 120.696C72.4034 122.656 67.0218 123.837 61.464 124.333C61.0553 124.37 60.6506 124.448 60.2448 124.608C61.0604 124.608 61.8843 124.682 62.6906 124.596C68.8671 123.935 74.9385 122.767 80.6807 120.35C87.717 117.389 94.0855 113.42 99.565 108.045C103.708 103.981 107.257 99.5201 109.985 94.4272C115.645 83.8602 117.708 72.6522 115.746 60.8204C113.668 48.2918 107.655 37.9872 97.3425 30.3733C89.2372 24.3886 80.0694 21.4567 69.892 22.0379C63.4506 22.4058 57.4437 24.3324 52.0941 27.8453C45.119 32.4258 40.4012 38.733 38.4619 46.9251C38.26 47.7782 38.0328 48.6527 37.63 49.4208C37.4051 49.8496 36.7977 50.324 36.3562 50.3302C35.9192 50.3364 35.1875 49.8532 35.0843 49.4568C34.7244 48.0763 34.3961 46.6414 34.3904 45.2257C34.3748 41.3633 35.6636 37.7969 37.4305 34.4235C41.9655 25.765 49.129 20.1221 58.2969 16.846C71.4633 12.1412 84.1088 13.8354 96.2854 20.1056C103.108 23.6189 108.74 28.5871 113.405 34.6668C119.318 42.3725 122.945 51.0078 124.394 60.5529C124.804 63.2545 125.045 65.9815 125.387 68.9009C125.699 65.3255 125.281 61.9893 124.728 58.6812C123.143 49.1996 119.459 40.5697 113.561 32.9411C108.657 26.5986 102.643 21.5198 95.4454 17.8102C87.3517 13.6389 78.7596 11.5317 69.6844 11.9016C59.191 12.3294 49.5045 15.5267 41.488 22.3616C29.4623 32.6147 24.0839 45.5572 27.3495 61.2887C29.2805 70.5902 34.6416 77.6574 43.1606 82.1575C45.0981 83.1809 47.2946 83.7245 49.3766 84.4761C50.1206 84.7447 50.9427 84.8689 51.6073 85.2615C52.0529 85.5248 52.5465 86.1488 52.5385 86.6034C52.5307 87.0643 52.0095 87.8053 51.5791 87.9173C50.1863 88.2793 48.719 88.6574 47.3037 88.5845C41.2252 88.2716 35.9832 85.8938 31.3539 82.0087C24.4088 76.18 20.5097 68.6865 18.8348 59.9434C16.8649 49.6607 18.7824 39.9382 23.5863 30.7908C27.8303 22.7095 34.0223 16.3328 41.8556 11.4794C51.6279 5.42457 62.2762 2.71746 73.7203 2.95699C78.0384 3.0474 82.3132 3.67199 86.5173 4.69806L86.503 4.70334Z" fill="url(#paint0_linear_12511_14881)" style=""/>
<path d="M53.1879 7.05512L53.8074 35.6511C53.8956 39.7263 57.1783 43.009 61.2535 43.0972L89.8495 43.7167L61.2536 44.3361C57.1783 44.4244 53.8956 47.707 53.8074 51.7823L53.1879 80.3782L52.5685 51.7823C52.4802 47.707 49.1976 44.4244 45.1223 44.3361L16.5264 43.7167L45.1223 43.0972C49.1976 43.009 52.4802 39.7263 52.5685 35.6511L53.1879 7.05512Z" fill="#F8F5F1" style="fill:#F8F5F1;fill:color(display-p3 0.9725 0.9608 0.9451);fill-opacity:1;"/>
<path d="M155.956 33.3539C155.956 27.9568 160.468 25.3353 169.839 25.3353H186.412C195.697 25.3353 200.296 27.9413 200.296 33.3539V39.9075H180.512V31.7001C180.456 31.3392 180.165 31.0039 179.698 30.7621C179.231 30.5202 178.623 30.3897 177.996 30.397C177.4 30.403 176.833 30.5422 176.412 30.7853C175.991 31.0283 175.75 31.3563 175.739 31.7001V61.1722C175.732 61.5237 175.965 61.8628 176.387 62.116C176.809 62.3692 177.387 62.5163 177.996 62.5254C178.636 62.53 179.254 62.3919 179.723 62.1399C180.192 61.888 180.474 61.5414 180.512 61.1722V51.3456H177.909V46.5846H200.296V67.3365H189.796L188.321 64.3797C186.152 66.4845 182.16 67.5871 176.26 67.5871H169.839C160.495 67.5871 155.956 64.9309 155.956 59.5685V33.3539Z" fill="#F8F5F1" style="fill:#F8F5F1;fill:color(display-p3 0.9725 0.9608 0.9451);fill-opacity:1;"/>
<path fill-rule="evenodd" clip-rule="evenodd" d="M243.334 25.5855L251.664 67.3361H231.707L230.058 57.8641H222.422L220.42 67.3361H202.552L212.01 25.5855H243.334ZM229.19 52.4516L226.848 31.7999L223.116 52.4516H229.19Z" fill="#F8F5F1" style="fill:#F8F5F1;fill:color(display-p3 0.9725 0.9608 0.9451);fill-opacity:1;"/>
<path d="M273.696 61.4378V25.5855H253.913V67.3515H283.515V61.4378H273.696Z" fill="#F8F5F1" style="fill:#F8F5F1;fill:color(display-p3 0.9725 0.9608 0.9451);fill-opacity:1;"/>
<path fill-rule="evenodd" clip-rule="evenodd" d="M326.46 25.5855L334.79 67.3361H314.833L313.184 57.8641H305.542L303.539 67.3361H285.671L295.129 25.5855H326.46ZM312.31 52.4516L309.967 31.7999L306.209 52.4516H312.31Z" fill="#F8F5F1" style="fill:#F8F5F1;fill:color(display-p3 0.9725 0.9608 0.9451);fill-opacity:1;"/>
<path d="M366.801 67.5873C376.085 67.5873 380.684 64.9311 380.684 59.5687V50.9448H360.901V61.1724C360.863 61.5415 360.58 61.8881 360.112 62.1401C359.643 62.3921 359.025 62.5301 358.384 62.5255C357.776 62.5164 357.198 62.3694 356.776 62.1162C356.354 61.8629 356.121 61.5239 356.128 61.1724V31.7002C356.139 31.3565 356.38 31.0285 356.8 30.7854C357.221 30.5423 357.789 30.4031 358.384 30.3972C359.011 30.3899 359.62 30.5204 360.087 30.7622C360.554 31.0041 360.845 31.3393 360.901 31.7002V39.9077H380.718V33.354C380.718 27.9415 376.119 25.3355 366.834 25.3355H350.261C340.89 25.3355 336.378 27.9569 336.378 33.354V59.5687C336.378 64.9311 340.917 67.5873 350.261 67.5873H366.801Z" fill="#F8F5F1" style="fill:#F8F5F1;fill:color(display-p3 0.9725 0.9608 0.9451);fill-opacity:1;"/>
<path d="M416.434 25.5855V31.611H409.492V67.3477H389.709V31.611H382.767V25.597L416.434 25.5855Z" fill="#F8F5F1" style="fill:#F8F5F1;fill:color(display-p3 0.9725 0.9608 0.9451);fill-opacity:1;"/>
<path d="M420.252 67.3361H440.036V25.5855H420.252V67.3361Z" fill="#F8F5F1" style="fill:#F8F5F1;fill:color(display-p3 0.9725 0.9608 0.9451);fill-opacity:1;"/>
<path d="M489.094 59.5687C489.094 64.9311 484.496 67.5873 475.211 67.5873H458.605C449.26 67.5873 444.721 64.9311 444.721 59.5687V33.354C444.721 27.9569 449.233 25.3355 458.605 25.3355H475.178C484.462 25.3355 489.061 27.9415 489.061 33.354V39.9077H469.277V31.7002C469.222 31.3393 468.931 31.0041 468.464 30.7622C467.997 30.5204 467.388 30.3899 466.761 30.3972C466.166 30.4031 465.598 30.5423 465.177 30.7854C464.756 31.0285 464.515 31.3565 464.505 31.7002V61.1724C464.498 61.5239 464.73 61.8629 465.153 62.1162C465.575 62.3694 466.153 62.5164 466.761 62.5255C467.401 62.5301 468.02 62.3921 468.489 62.1401C468.957 61.8881 469.24 61.5415 469.277 61.1724V50.9448H489.094V59.5687Z" fill="#F8F5F1" style="fill:#F8F5F1;fill:color(display-p3 0.9725 0.9608 0.9451);fill-opacity:1;"/>
<path fill-rule="evenodd" clip-rule="evenodd" d="M538 67.3361L529.67 25.5855H498.346L488.888 67.3361H506.756L508.758 57.8641H516.394L518.043 67.3361H538ZM513.184 31.7999L515.527 52.4516H509.453L513.184 31.7999Z" fill="#F8F5F1" style="fill:#F8F5F1;fill:color(display-p3 0.9725 0.9608 0.9451);fill-opacity:1;"/>
<path d="M165.55 81.3027H155.956V101.37H161.401V94.1428C161.401 92.336 161.174 89.5897 161.174 89.5897L163.994 101.37H173.686V81.3027H168.208V86.2653C168.208 88.0721 168.468 93.8537 168.468 93.8537L165.55 81.3027Z" fill="#F8F5F1" style="fill:#F8F5F1;fill:color(display-p3 0.9725 0.9608 0.9451);fill-opacity:1;"/>
<path d="M175.076 81.3027V101.37H186.681V98.5272H182.467V92.3601H186.681V89.5175H182.467V84.1454H186.681V81.3027H175.076Z" fill="#F8F5F1" style="fill:#F8F5F1;fill:color(display-p3 0.9725 0.9608 0.9451);fill-opacity:1;"/>
<path d="M187.277 81.3027V84.1935H189.87V101.37H197.261V84.1935H199.854V81.3027H187.277Z" fill="#F8F5F1" style="fill:#F8F5F1;fill:color(display-p3 0.9725 0.9608 0.9451);fill-opacity:1;"/>
<path d="M229.541 81.3027H223.155L221.924 89.1079C221.664 90.8424 221.34 94.6005 221.34 94.6005C221.34 94.6005 221.113 90.8665 220.886 89.0838L219.882 81.3027H210.417L209.217 88.9152C208.926 90.8665 208.602 95.1546 208.602 95.1546C208.602 95.1546 208.342 90.8424 208.083 88.9393L206.981 81.3027H199.655L202.67 101.37H212.653L214.501 87.4698L216.186 101.37H226.04L229.541 81.3027Z" fill="#F8F5F1" style="fill:#F8F5F1;fill:color(display-p3 0.9725 0.9608 0.9451);fill-opacity:1;"/>
<path d="M239.3 84.2417V98.4067C239.3 98.7681 238.846 99.0572 238.36 99.0572C237.906 99.0572 237.517 98.7681 237.517 98.4067V84.2417C237.517 83.9045 237.906 83.6154 238.36 83.6154C238.846 83.6154 239.3 83.9045 239.3 84.2417ZM230.127 85.0367V97.6358C230.127 100.213 231.813 101.49 235.313 101.49H241.504C244.973 101.49 246.691 100.213 246.691 97.6358V85.0367C246.691 82.435 244.973 81.1823 241.504 81.1823H235.313C231.813 81.1823 230.127 82.435 230.127 85.0367Z" fill="#F8F5F1" style="fill:#F8F5F1;fill:color(display-p3 0.9725 0.9608 0.9451);fill-opacity:1;"/>
<path d="M257.249 84.1213V89.2284C257.249 89.5897 256.828 89.8788 256.342 89.8788H255.467V83.4467H256.342C256.828 83.4467 257.249 83.7599 257.249 84.1213ZM264.64 87.6866V85.1571C264.64 82.5554 262.922 81.3027 259.454 81.3027H248.076V101.37H255.467V92.1433H256.342C256.828 92.1433 257.249 92.4565 257.249 92.7937V100.045C257.249 100.575 257.314 100.912 257.736 101.37H265.126C264.737 100.912 264.64 100.575 264.64 100.045V94.8655C264.64 93.3237 264.64 91.8542 262.112 91.1074C264.445 90.3365 264.64 89.1079 264.64 87.6866Z" fill="#F8F5F1" style="fill:#F8F5F1;fill:color(display-p3 0.9725 0.9608 0.9451);fill-opacity:1;"/>
<path d="M273.416 81.3027H266.026V101.37H273.416V92.5769L275.588 101.37H282.816L280.061 89.8306L282.881 81.3027H276.041L273.416 88.7948V81.3027Z" fill="#F8F5F1" style="fill:#F8F5F1;fill:color(display-p3 0.9725 0.9608 0.9451);fill-opacity:1;"/>
<defs>
<linearGradient id="paint0_linear_12511_14881" x1="46.3823" y1="235.384" x2="198.896" y2="188.625" gradientUnits="userSpaceOnUse">
<stop stop-color="#F26F56" style="stop-color:#F26F56;stop-color:color(display-p3 0.9490 0.4353 0.3373);stop-opacity:1;"/>
<stop offset="1" stop-color="#F49756" style="stop-color:#F49756;stop-color:color(display-p3 0.9569 0.5922 0.3373);stop-opacity:1;"/>
</linearGradient>
</defs>
</svg>
