<svg width="538" height="78" viewBox="0 0 538 78" fill="none" xmlns="http://www.w3.org/2000/svg">
<path fill-rule="evenodd" clip-rule="evenodd" d="M54.2709 3.41001C54.0847 3.32614 53.9064 3.21185 53.7113 3.16296C46.5065 1.35795 39.3895 1.64363 32.4155 4.2022C29.7028 5.19735 27.1497 6.52991 24.776 8.2196C22.7215 9.68207 20.8401 11.3181 19.185 13.1874C13.6063 19.4876 10.9513 26.8209 11.4429 35.2288C11.7721 40.8597 13.6456 45.952 17.2133 50.3223C21.3703 55.4143 26.7197 58.5803 33.399 59.2177C37.7984 59.6375 41.9971 58.9042 45.8506 56.659C47.5084 55.693 49.0057 54.5121 50.3349 53.1251C50.7423 52.6998 51.1728 52.2826 51.6525 51.9454C51.859 51.8003 52.2907 51.7513 52.4866 51.8717C52.6795 51.9903 52.8413 52.4182 52.7763 52.6417C52.561 53.3823 52.3393 54.1545 51.9359 54.8017C50.7362 56.726 49.1924 58.3461 47.2772 59.6079C39.9395 64.4423 32.2027 64.5089 24.2981 61.3227C20.1233 59.64 16.6619 56.9107 13.7421 53.4692C8.7354 47.5682 6.47423 40.6931 6.32386 33.1034C6.23694 28.714 7.19588 24.4563 8.81415 20.3715C10.1366 17.0334 11.881 13.916 14.2316 11.1682C15.2684 9.95635 16.3861 8.81238 17.466 7.6365C17.6704 7.41396 17.8695 7.18674 18.0712 6.96156C18.0394 6.9235 18.0077 6.88533 17.976 6.84716C17.6986 7.07165 17.3962 7.27197 17.1478 7.52438C14.8836 9.82462 12.773 12.2382 11.0652 14.9956C8.08515 19.8066 6.27281 24.988 5.79708 30.6152C5.39377 35.3845 5.86985 40.067 7.45226 44.5999C8.81105 48.4927 10.7701 52.0828 13.5385 55.171C20.1411 62.5365 28.3645 66.2076 38.3745 65.5126C43.5281 65.1547 48.2332 63.4226 52.2549 60.1786C58.4175 55.2078 61.5044 48.7983 61.0613 40.8402C61.0244 40.177 60.955 39.5092 61.0014 38.8505C61.0213 38.5674 61.2571 38.1243 61.4696 38.0757C61.7106 38.0208 62.1368 38.2542 62.3063 38.4879C63.0661 39.5352 63.3028 40.7877 63.4825 42.0253C64.199 46.9585 63.2078 51.5709 60.7525 55.9015C58.408 60.0369 55.1779 63.328 51.0668 65.7253C43.63 70.0616 35.6807 70.8969 27.3836 68.8604C22.1969 67.5875 17.6233 65.1054 13.587 61.6475C9.37324 58.0373 6.17877 53.6832 3.97382 48.6163C3.45934 47.4342 2.97441 46.2394 2.41016 45.0638C2.64296 45.8203 2.83404 46.5922 3.11502 47.3305C5.90641 54.6645 10.4658 60.6499 17.0443 65.0494C22.8516 68.933 29.278 70.9867 36.2913 70.9734C43.7412 70.9594 50.468 68.7121 56.2859 64.0375C62.0715 59.3887 65.561 53.3827 66.6316 46.0792C67.4493 40.5022 66.4113 35.1869 63.5566 30.3222C61.1361 26.1972 57.7014 23.0844 53.1886 21.2538C52.1443 20.8303 51.0701 20.4795 50.0103 20.0934C49.7229 19.9887 49.3956 19.9317 49.1636 19.7541C48.9317 19.5766 48.6228 19.242 48.6628 19.0364C48.7127 18.7804 49.0516 18.4668 49.3257 18.3911C49.8138 18.2564 50.349 18.2287 50.8608 18.2488C54.036 18.373 56.8719 19.507 59.4995 21.2017C65.1948 24.8751 68.6729 30.0974 70.2334 36.5889C71.8071 43.1346 71.0694 49.4982 68.362 55.6348C66.1207 60.7147 62.671 64.8955 58.2853 68.2931C55.4509 70.4888 52.3075 72.1702 48.9233 73.4358C45.7588 74.6192 42.5099 75.332 39.1546 75.6318C38.9079 75.6539 38.6636 75.7013 38.4186 75.7974C38.911 75.7974 39.4083 75.8423 39.8951 75.7902C43.6239 75.3916 47.2893 74.6864 50.7559 73.2272C55.0038 71.4392 58.8485 69.0431 62.1566 65.7983C64.6578 63.345 66.8004 60.6519 68.4473 57.5772C71.8644 51.1978 73.1096 44.4314 71.9249 37.2884C70.6705 29.7248 67.0404 23.5038 60.8148 18.9072C55.9216 15.2942 50.3868 13.5242 44.2427 13.8751C40.3539 14.0972 36.7275 15.2603 33.4979 17.381C29.287 20.1463 26.4388 23.954 25.268 28.8997C25.1461 29.4148 25.009 29.9427 24.7658 30.4064C24.63 30.6653 24.2633 30.9516 23.9968 30.9554C23.7329 30.9592 23.2912 30.6674 23.2289 30.4281C23.0116 29.5947 22.8134 28.7284 22.81 27.8738C22.8006 25.542 23.5786 23.389 24.6453 21.3524C27.3831 16.1252 31.7078 12.7184 37.2426 10.7407C45.1913 7.9003 52.8255 8.92314 60.1766 12.7085C64.2954 14.8295 67.6957 17.8289 70.5121 21.4993C74.0818 26.1513 76.2715 31.3645 77.1459 37.1269C77.3935 38.7579 77.5389 40.4042 77.7455 42.1667C77.9341 40.0082 77.6815 37.9941 77.3476 35.997C76.3907 30.2728 74.1667 25.0629 70.6058 20.4574C67.6454 16.6284 64.0149 13.5623 59.6695 11.3228C54.7833 8.80452 49.5961 7.53235 44.1174 7.7557C37.7823 8.01391 31.9346 9.94416 27.0949 14.0705C19.8349 20.2604 16.5879 28.0739 18.5593 37.5711C19.7251 43.1866 22.9616 47.4531 28.1047 50.1698C29.2743 50.7877 30.6004 51.1159 31.8573 51.5696C32.3065 51.7318 32.8028 51.8068 33.204 52.0438C33.473 52.2027 33.771 52.5795 33.7662 52.8539C33.7615 53.1321 33.4468 53.5795 33.187 53.6471C32.3461 53.8657 31.4603 54.0939 30.6059 54.0499C26.9363 53.861 23.7716 52.4255 20.9768 50.08C16.784 46.5612 14.4301 42.0373 13.4189 36.759C12.2297 30.5512 13.3873 24.6816 16.2875 19.1593C18.8496 14.2805 22.5878 10.4308 27.3168 7.50079C33.2164 3.84542 39.6449 2.21111 46.5538 2.35572C49.1607 2.4103 51.7415 2.78737 54.2795 3.40682L54.2709 3.41001Z" fill="url(#paint0_linear_12511_14872)" style=""/>
<path d="M101.621 24.9354C101.621 18.8524 106.753 15.8978 117.412 15.8978H136.262C146.822 15.8978 152.053 18.835 152.053 24.9354V32.3218H129.551V23.0714C129.488 22.6646 129.157 22.2868 128.626 22.0142C128.094 21.7416 127.402 21.5946 126.689 21.6028C126.012 21.6095 125.366 21.7664 124.887 22.0403C124.409 22.3143 124.134 22.684 124.123 23.0714V56.2887C124.115 56.6849 124.379 57.067 124.859 57.3524C125.34 57.6378 125.997 57.8036 126.689 57.8138C127.417 57.819 128.121 57.6634 128.654 57.3794C129.187 57.0954 129.508 56.7048 129.551 56.2887V45.2134H126.59V39.8473H152.053V63.2364H140.111L138.433 59.9038C135.966 62.2761 131.426 63.5188 124.715 63.5188H117.412C106.783 63.5188 101.621 60.5251 101.621 54.4812V24.9354Z" fill="#F8F5F1" style="fill:#F8F5F1;fill:color(display-p3 0.9725 0.9608 0.9451);fill-opacity:1;"/>
<path fill-rule="evenodd" clip-rule="evenodd" d="M201.006 16.1802L210.48 63.2364H187.781L185.906 52.5607H177.221L174.943 63.2364H154.62L165.377 16.1802H201.006ZM184.919 46.4604L182.254 23.1843L178.01 46.4604H184.919Z" fill="#F8F5F1" style="fill:#F8F5F1;fill:color(display-p3 0.9725 0.9608 0.9451);fill-opacity:1;"/>
<path d="M235.54 56.5885V16.1802H213.038V63.2537H246.708V56.5885H235.54Z" fill="#F8F5F1" style="fill:#F8F5F1;fill:color(display-p3 0.9725 0.9608 0.9451);fill-opacity:1;"/>
<path fill-rule="evenodd" clip-rule="evenodd" d="M295.554 16.1802L305.029 63.2364H282.329L280.454 52.5607H271.761L269.484 63.2364H249.161L259.918 16.1802H295.554ZM279.459 46.4604L276.795 23.1843L272.521 46.4604H279.459Z" fill="#F8F5F1" style="fill:#F8F5F1;fill:color(display-p3 0.9725 0.9608 0.9451);fill-opacity:1;"/>
<path d="M341.438 63.5188C351.999 63.5188 357.229 60.5251 357.229 54.4812V44.7615H334.727V56.2887C334.684 56.7048 334.363 57.0954 333.83 57.3794C333.297 57.6634 332.593 57.819 331.865 57.8138C331.173 57.8036 330.516 57.6378 330.036 57.3524C329.555 57.067 329.291 56.6849 329.299 56.2887V23.0714C329.311 22.684 329.585 22.3143 330.063 22.0403C330.542 21.7664 331.188 21.6095 331.865 21.6028C332.578 21.5946 333.271 21.7416 333.802 22.0142C334.333 22.2868 334.664 22.6646 334.727 23.0714V32.3218H357.267V24.9354C357.267 18.835 352.036 15.8978 341.476 15.8978H322.626C311.967 15.8978 306.835 18.8524 306.835 24.9354V54.4812C306.835 60.5251 311.997 63.5188 322.626 63.5188H341.438Z" fill="#F8F5F1" style="fill:#F8F5F1;fill:color(display-p3 0.9725 0.9608 0.9451);fill-opacity:1;"/>
<path d="M397.891 16.1802V22.9714H389.996V63.2494H367.494V22.9714H359.598V16.1933L397.891 16.1802Z" fill="#F8F5F1" style="fill:#F8F5F1;fill:color(display-p3 0.9725 0.9608 0.9451);fill-opacity:1;"/>
<path d="M402.234 63.2364H424.736V16.1802H402.234V63.2364Z" fill="#F8F5F1" style="fill:#F8F5F1;fill:color(display-p3 0.9725 0.9608 0.9451);fill-opacity:1;"/>
<path d="M480.536 54.4812C480.536 60.5251 475.305 63.5188 464.745 63.5188H445.857C435.228 63.5188 430.066 60.5251 430.066 54.4812V24.9354C430.066 18.8524 435.198 15.8978 445.857 15.8978H464.707C475.267 15.8978 480.498 18.835 480.498 24.9354V32.3218H457.996V23.0714C457.933 22.6646 457.602 22.2868 457.071 22.0142C456.539 21.7416 455.847 21.5946 455.134 21.6028C454.457 21.6095 453.811 21.7664 453.332 22.0403C452.854 22.3143 452.579 22.684 452.568 23.0714V56.2887C452.56 56.6849 452.824 57.067 453.304 57.3524C453.785 57.6378 454.442 57.8036 455.134 57.8138C455.862 57.819 456.566 57.6634 457.099 57.3794C457.632 57.0954 457.953 56.7048 457.996 56.2887V44.7615H480.536V54.4812Z" fill="#F8F5F1" style="fill:#F8F5F1;fill:color(display-p3 0.9725 0.9608 0.9451);fill-opacity:1;"/>
<path fill-rule="evenodd" clip-rule="evenodd" d="M536.162 63.2364L526.687 16.1802H491.059L480.301 63.2364H500.625L502.902 52.5607H511.587L513.462 63.2364H536.162ZM507.935 23.1843L510.6 46.4604H503.692L507.935 23.1843Z" fill="#F8F5F1" style="fill:#F8F5F1;fill:color(display-p3 0.9725 0.9608 0.9451);fill-opacity:1;"/>
<path d="M34.1574 4.82967L34.5313 22.0933C34.5846 24.5536 36.5664 26.5354 39.0267 26.5887L56.2903 26.9626L39.0267 27.3366C36.5664 27.3899 34.5846 29.3716 34.5313 31.8319L34.1574 49.0956L33.7834 31.8319C33.7301 29.3716 31.7484 27.3899 29.2881 27.3366L12.0244 26.9626L29.2881 26.5887C31.7484 26.5354 33.7301 24.5536 33.7834 22.0933L34.1574 4.82967Z" fill="#F8F5F1" style="fill:#F8F5F1;fill:color(display-p3 0.9725 0.9608 0.9451);fill-opacity:1;"/>
<defs>
<linearGradient id="paint0_linear_12511_14872" x1="30.0496" y1="142.674" x2="122.124" y2="114.445" gradientUnits="userSpaceOnUse">
<stop stop-color="#F26F56" style="stop-color:#F26F56;stop-color:color(display-p3 0.9490 0.4353 0.3373);stop-opacity:1;"/>
<stop offset="1" stop-color="#F49756" style="stop-color:#F49756;stop-color:color(display-p3 0.9569 0.5922 0.3373);stop-opacity:1;"/>
</linearGradient>
</defs>
</svg>
