<svg width="538" height="41" viewBox="0 0 538 41" fill="none" xmlns="http://www.w3.org/2000/svg">
<path fill-rule="evenodd" clip-rule="evenodd" d="M0.599609 7.9007C0.599609 2.77107 4.88804 0.279541 13.7948 0.279541H29.5465C38.3708 0.279541 42.7417 2.75641 42.7417 7.9007V14.1295H23.9386V6.32884C23.8857 5.98584 23.6093 5.66722 23.1654 5.43735C22.7215 5.20747 22.1431 5.08347 21.547 5.0904C20.9813 5.09605 20.4416 5.22834 20.0416 5.45938C19.6416 5.69041 19.4125 6.00215 19.4027 6.32884V34.3403C19.3959 34.6744 19.617 34.9966 20.0182 35.2373C20.4195 35.4779 20.9687 35.6177 21.547 35.6263C22.1554 35.6307 22.7435 35.4995 23.1888 35.26C23.6342 35.0205 23.9027 34.6911 23.9386 34.3403V25.0007H21.4645V20.4756H42.7417V40.199H32.7628L31.3609 37.3887C29.2991 39.3893 25.5055 40.4372 19.8976 40.4372H13.7948C4.91342 40.4372 0.599609 37.9127 0.599609 32.816V7.9007ZM83.6473 0.517699L91.5644 40.199H72.5963L71.0294 31.1965H63.7721L61.8689 40.199H44.8865L53.8757 0.517699H83.6473ZM70.2047 26.0523L67.978 6.4241L64.4318 26.0523H70.2047ZM112.505 0.517699V34.5931H121.836V40.2137H93.7014V0.517699H112.505ZM162.653 0.517699L170.57 40.199H151.602L150.035 31.1965H142.772L140.869 40.199H123.886L132.875 0.517699H162.653ZM149.204 26.0523L146.978 6.4241L143.406 26.0523H149.204ZM214.19 32.816C214.19 37.9127 209.819 40.4372 200.995 40.4372H185.275C176.393 40.4372 172.08 37.9127 172.08 32.816V7.9007C172.08 2.77107 176.368 0.279541 185.275 0.279541H201.026C209.851 0.279541 214.222 2.75641 214.222 7.9007V14.1295H195.387V6.32884C195.334 5.98584 195.058 5.66722 194.614 5.43735C194.17 5.20747 193.591 5.08347 192.995 5.0904C192.43 5.09605 191.89 5.22834 191.49 5.45938C191.09 5.69041 190.861 6.00215 190.851 6.32884V34.3403C190.844 34.6744 191.065 34.9966 191.466 35.2373C191.868 35.4779 192.417 35.6177 192.995 35.6263C193.604 35.6307 194.192 35.4995 194.637 35.26C195.082 35.0205 195.351 34.6911 195.387 34.3403V24.6196H214.19V32.816ZM248.168 0.517699V6.24457H241.57V40.21H222.767V6.24457H216.169V0.528691L248.168 0.517699ZM270.6 40.199H251.796V0.517699H270.6V40.199ZM317.227 32.816C317.227 37.9127 312.856 40.4372 304.032 40.4372H288.248C279.367 40.4372 275.053 37.9127 275.053 32.816V7.9007C275.053 2.77107 279.341 0.279541 288.248 0.279541H304C312.824 0.279541 317.195 2.75641 317.195 7.9007V14.1295H298.392V6.32884C298.339 5.98584 298.063 5.66722 297.619 5.43735C297.175 5.20747 296.596 5.08347 296 5.0904C295.435 5.09605 294.895 5.22834 294.495 5.45938C294.095 5.69041 293.866 6.00215 293.856 6.32884V34.3403C293.849 34.6744 294.07 34.9966 294.472 35.2373C294.873 35.4779 295.422 35.6177 296 35.6263C296.609 35.6307 297.197 35.4995 297.642 35.26C298.088 35.0205 298.356 34.6911 298.392 34.3403V24.6196H317.227V32.816ZM355.791 0.517699L363.709 40.199H344.74L343.174 31.1965H335.916L334.013 40.199H317.031L326.02 0.517699H355.791ZM342.349 26.0523L340.122 6.4241L336.576 26.0523H342.349ZM422.247 32.9759V24.7675H403.654V34.5031C403.654 35.2189 402.513 35.7916 401.29 35.7916C400.148 35.7916 399.169 35.2189 399.169 34.5031V6.44169C399.169 5.77356 400.148 5.20088 401.29 5.20088C402.513 5.20088 403.654 5.77356 403.654 6.44169V14.2683H422.247V8.01656C422.247 2.86243 417.925 0.38081 409.199 0.38081H393.624C384.817 0.38081 380.577 2.86243 380.577 8.01656V32.9759C380.577 38.0823 384.817 40.6117 393.624 40.6117H409.199C417.925 40.6117 422.247 38.0823 422.247 32.9759ZM377.058 40.3731V31.926H367.809V40.3731H377.058ZM449.625 6.44169C449.625 5.77356 448.484 5.20088 447.261 5.20088C446.119 5.20088 445.141 5.77356 445.141 6.44169V34.5031C445.141 35.2189 446.119 35.7916 447.261 35.7916C448.484 35.7916 449.625 35.2189 449.625 34.5031V6.44169ZM426.548 8.01656C426.548 2.86243 430.789 0.38081 439.595 0.38081H455.171C463.896 0.38081 468.218 2.86243 468.218 8.01656V32.9759C468.218 38.0823 463.896 40.6117 455.171 40.6117H439.595C430.789 40.6117 426.548 38.0823 426.548 32.9759V8.01656ZM498.777 0.619427H472.519V40.3731H486.219V23.813C486.219 20.6156 485.893 12.4548 485.893 12.4548L494.047 40.3731H511.906L520.549 12.8366C520.549 12.8366 519.408 21.0928 519.408 23.9085V40.3731H538V0.619427H510.275L507.176 10.9277C506.197 14.2206 504.811 22.6677 504.811 22.6677C504.811 22.6677 503.017 13.4093 502.202 10.9277L498.777 0.619427Z" fill="#2B2B2B" style="fill:#2B2B2B;fill:color(display-p3 0.1704 0.1704 0.1704);fill-opacity:1;"/>
</svg>
